# xmcd CD database file
#
# Track frame offsets:
#	150
#	34388
#	67383
#	90885
#	113677
#	135762
#	160007
#	202183
#	239778
#	269046
#
# Disc length: 3947 seconds
#
# Revision: 0
# Processed by: cddbd v1.5.2PL0 Copyright (c) Steve Scherf et al.
# Submitted via: CDex 1.51
#
DISCID=910f690a
DTITLE=Allen-Cohn Quartet with Allred and Hamilton - Sompin' the blues
DYEAR=2008
DGENRE=Jazz
TTITLE0=You're Driving Me Crazy
TTITLE1=I'll Get By
TTITLE2=Stomping the Blues
TTITLE3=My Old Flame
TTITLE4=Don't Want to Have to
TTITLE5=But I Will
TTITLE6=I Only Have Eyes For You
TTITLE7=I Would Do Most Anything For You
TTITLE8=Spring Medley
TTITLE9=So There
EXTD=YEAR: 2008
EXTT0=
EXTT1=
EXTT2=
EXTT3=
EXTT4=
EXTT5=
EXTT6=
EXTT7=
EXTT8=
EXTT9=
PLAYORDER=
